<svg id="visual" viewBox="0 0 900 600" width="900" height="600" xmlns="http://www.w3.org/2000/svg" xmlns:xlink="http://www.w3.org/1999/xlink" version="1.1"><rect x="0" y="0" width="900" height="600" fill="#ffffff"></rect><defs><linearGradient id="grad1_0" x1="33.3%" y1="0%" x2="100%" y2="100%"><stop offset="20%" stop-color="#ffffff" stop-opacity="1"></stop><stop offset="80%" stop-color="#ffffff" stop-opacity="1"></stop></linearGradient></defs><defs><linearGradient id="grad2_0" x1="0%" y1="0%" x2="66.7%" y2="100%"><stop offset="20%" stop-color="#ffffff" stop-opacity="1"></stop><stop offset="80%" stop-color="#ffffff" stop-opacity="1"></stop></linearGradient></defs><g transform="translate(900, 0)"><path d="M0 405.6C-50.3 394 -100.5 382.3 -151.2 364.9C-201.8 347.5 -252.8 324.4 -286.8 286.8C-320.8 249.2 -337.8 197.2 -354.8 147C-371.7 96.7 -388.7 48.4 -405.6 0L0 0Z" fill="#920000"></path></g><g transform="translate(0, 600)"><path d="M0 -405.6C54.2 -400.6 108.3 -395.5 155.2 -374.7C202.1 -354 241.7 -317.4 279.3 -279.3C316.9 -241.2 352.5 -201.4 373.2 -154.6C394 -107.8 399.8 -53.9 405.6 0L0 0Z" fill="#920000"></path></g></svg>