<svg id="visual" viewBox="0 0 900 675" width="900" height="675" xmlns="http://www.w3.org/2000/svg" xmlns:xlink="http://www.w3.org/1999/xlink" version="1.1"><path d="M845 675L818 675L818 563L818 563L818 450L827 450L827 338L809 338L809 225L818 225L818 112L818 112L818 0L900 0L900 112L900 112L900 225L900 225L900 338L900 338L900 450L900 450L900 563L900 563L900 675L900 675Z" fill="#575700"></path><path d="M782 675L773 675L773 563L773 563L773 450L746 450L746 338L746 338L746 225L746 225L746 112L746 112L746 0L819 0L819 112L819 112L819 225L810 225L810 338L828 338L828 450L819 450L819 563L819 563L819 675L846 675Z" fill="#5c5c00"></path><path d="M701 675L674 675L674 563L656 563L656 450L638 450L638 338L629 338L629 225L665 225L665 112L629 112L629 0L747 0L747 112L747 112L747 225L747 225L747 338L747 338L747 450L774 450L774 563L774 563L774 675L783 675Z" fill="#626200"></path><path d="M638 675L620 675L620 563L611 563L611 450L602 450L602 338L584 338L584 225L611 225L611 112L593 112L593 0L630 0L630 112L666 112L666 225L630 225L630 338L639 338L639 450L657 450L657 563L675 563L675 675L702 675Z" fill="#676700"></path><path d="M575 675L548 675L548 563L539 563L539 450L548 450L548 338L521 338L521 225L548 225L548 112L521 112L521 0L594 0L594 112L612 112L612 225L585 225L585 338L603 338L603 450L612 450L612 563L621 563L621 675L639 675Z" fill="#6d6d00"></path><path d="M512 675L485 675L485 563L476 563L476 450L512 450L512 338L485 338L485 225L485 225L485 112L485 112L485 0L522 0L522 112L549 112L549 225L522 225L522 338L549 338L549 450L540 450L540 563L549 563L549 675L576 675Z" fill="#727200"></path><path d="M431 675L377 675L377 563L386 563L386 450L404 450L404 338L395 338L395 225L386 225L386 112L395 112L395 0L486 0L486 112L486 112L486 225L486 225L486 338L513 338L513 450L477 450L477 563L486 563L486 675L513 675Z" fill="#787800"></path><path d="M251 675L179 675L179 563L215 563L215 450L215 450L215 338L206 338L206 225L224 225L224 112L206 112L206 0L396 0L396 112L387 112L387 225L396 225L396 338L405 338L405 450L387 450L387 563L378 563L378 675L432 675Z" fill="#7d7d00"></path><path d="M0 675L0 675L0 563L0 563L0 450L0 450L0 338L0 338L0 225L0 225L0 112L0 112L0 0L207 0L207 112L225 112L225 225L207 225L207 338L216 338L216 450L216 450L216 563L180 563L180 675L252 675Z" fill="#838300"></path></svg>